# xmcd
#
# Track frame offsets: 
#        150
#        18651
#        32835
#        54965
#        78579
#        95433
#        119370
#        142279
#        166836
#        202917
#        231492
#
# Disc length: 3247 seconds
#
# Revision: 4
# Processed by: cddbd v1.5.1PL0 Copyright (c) Steve Scherf et al.
# Submitted via: ExactAudioCopy v0.90b3
#
DISCID=940cad0b
DTITLE=Chris Duarte - Love Is Greater Than Me
DYEAR=2000
DGENRE=Blues
TTITLE0=Baddness
TTITLE1=Brand New Day
TTITLE2=All Night
TTITLE3=Metaphor Song
TTITLE4=Free 4 Me
TTITLE5=How Long
TTITLE6=Paper Dolls
TTITLE7=Metaphor Acoustic
TTITLE8=Azul Ezell
TTITLE9=Watch Out
TTITLE10=Duarte E Ezell (Opus 1 No. 3)
EXTD=
EXTT0=
EXTT1=
EXTT2=
EXTT3=
EXTT4=
EXTT5=
EXTT6=
EXTT7=
EXTT8=
EXTT9=
EXTT10=
PLAYORDER=
